<svg xmlns="http://www.w3.org/2000/svg" width="645" height="119" fill="none" viewBox="0 0 645 119">
  <path fill="#1B1F2B" d="M612 102.555c0-2.266.398-4.422 1.194-6.469.868-2.046 2.026-3.8 3.474-5.262 1.519-1.462 3.292-2.631 5.319-3.508 2.026-.877 4.197-1.316 6.513-1.316 2.244 0 4.378.439 6.405 1.316 2.026.877 3.763 2.046 5.21 3.508 1.52 1.462 2.714 3.216 3.583 5.262a16.396 16.396 0 0 1 1.302 6.469c0 2.339-.434 4.531-1.302 6.578a16.047 16.047 0 0 1-3.583 5.153c-1.447 1.462-3.184 2.594-5.21 3.398A15.957 15.957 0 0 1 628.5 119c-2.316 0-4.487-.439-6.513-1.316-2.027-.804-3.8-1.936-5.319-3.398-1.448-1.462-2.606-3.18-3.474-5.153-.796-2.047-1.194-4.239-1.194-6.578ZM150.69 2.43l-37.587 85.166.002.003-13.782 31.232-.001-.004-.001.004-13.782-31.232.002-.003L75.482 64.79 65.404 87.599l-13.78 31.232-13.782-31.232L.253 2.43h27.563l23.807 53.953L61.701 33.56 75.43 2.431h.085l13.73 31.128 10.076 22.822 23.806-53.95h27.562Zm118.072 116.557h-29.2l-34.556-62.205-34.54 62.205h-31.008l50.043-90.112L204.11 2.587l15.503 27.907 49.149 88.493ZM318.421 2.431h34.104v22.396h-34.104v94.004H292.58V24.827h-34.104V2.43h59.945Zm154.12 73.604c-7.436 23.606-29.528 40.774-55.547 40.774-.79 0-1.574-.028-2.357-.059-31-1.244-55.851-26.849-55.851-58.149 0-32.106 26.119-58.208 58.208-58.208 25.22 0 46.764 16.137 54.815 38.628h-27.948c-6.056-8.284-15.837-13.674-26.867-13.674-18.332 0-33.254 14.922-33.254 33.254 0 18.333 14.922 33.255 33.254 33.255 11.945 0 22.442-6.338 28.297-15.82h27.25Zm99.448-28.83v22.396h-50.858v49.23h-25.842V2.431h25.842v44.774h50.858Zm25.842 71.626H571.99V2.431h25.841v116.4Z"/>
  <path fill="url(#a)" d="M521.13 69.6V47.206h50.859v22.396H521.13Z" opacity=".57"/>
  <defs>
    <linearGradient id="a" x1="521.13" x2="571.989" y1="58.403" y2="58.403" gradientUnits="userSpaceOnUse">
      <stop stop-opacity="0"/>
      <stop offset=".325" stop-opacity=".293"/>
      <stop offset=".722" stop-opacity=".65"/>
      <stop offset="1" stop-opacity=".9"/>
    </linearGradient>
  </defs>
</svg>
